# xmcd
# 
# Track frame offsets:
#     150
#     21992
#     53425
#     70830
#     100030
#     123937
#     151517
#     179657
# 
# Disc length: 2709
# 
# Revision: 1
# Processed by: cddbd v1.5.2PL0 Copyright (c) Steve Scherf et al.
# Submitted via: BonkEnc v1.0.8
# 
DISCID=5a0a9308
DTITLE=David Friedman - Winter Love, April Joy
DYEAR=1975
DGENRE=Contemporary Jazz
TTITLE0=Nyack
TTITLE1=Truce
TTITLE2=Brite Piece
TTITLE3=Exercise #5
TTITLE4=Untitled
TTITLE5=Island
TTITLE6=Saraband
TTITLE7=I've Touched Your Soul
EXTD=YEAR: 1975
EXTT0=
EXTT1=
EXTT2=
EXTT3=
EXTT4=
EXTT5=
EXTT6=
EXTT7=
PLAYORDER=
